<?xml version="1.0" encoding="UTF-8" standalone="no"?>
<svg width="30px" height="28px" viewBox="0 0 30 28" version="1.1" xmlns="http://www.w3.org/2000/svg" xmlns:xlink="http://www.w3.org/1999/xlink">
    <!-- Generator: Sketch 49.3 (51167) - http://www.bohemiancoding.com/sketch -->
    <title>“</title>
    <desc>Created with Sketch.</desc>
    <defs></defs>
    <g id="Page-1" stroke="none" stroke-width="1" fill="none" fill-rule="evenodd">
        <g id="Artboard" transform="translate(-224.000000, -1320.000000)" fill="#FFFFFF">
            <g id="testimonial" transform="translate(224.000000, 1320.000000)">
                <path d="M3.26923077,28.0288462 C1.08973269,24.4711361 0,20.8814284 0,17.2596154 C0,14.0544712 0.809286779,10.9855916 2.42788462,8.05288462 C4.04648245,5.12017764 6.39421538,2.43590962 9.47115385,0 L13.1730769,2.25961538 C13.4935913,2.45192404 13.7179481,2.68429351 13.8461538,2.95673077 C13.9743596,3.22916803 14.0384615,3.49358846 14.0384615,3.75 C14.0384615,4.03846298 13.9743596,4.31089615 13.8461538,4.56730769 C13.7179481,4.82371923 13.5737188,5.04807596 13.4134615,5.24038462 C12.9967928,5.72115625 12.5560921,6.28204808 12.0913462,6.92307692 C11.6266002,7.56410577 11.201925,8.26121418 10.8173077,9.01442308 C10.4326904,9.76763197 10.1121808,10.5929442 9.85576923,11.4903846 C9.59935769,12.387825 9.47115385,13.3493538 9.47115385,14.375 C9.47115385,15.464749 9.64743413,16.6265964 10,17.8605769 C10.3525659,19.0945575 10.9455087,20.3846087 11.7788462,21.7307692 C12.0673091,22.1794894 12.2115385,22.6282029 12.2115385,23.0769231 C12.2115385,24.1025692 11.6346212,24.8237159 10.4807692,25.2403846 L3.26923077,28.0288462 Z M19.2307692,28.0288462 C17.0512712,24.4711361 15.9615385,20.8814284 15.9615385,17.2596154 C15.9615385,14.0544712 16.7708252,10.9855916 18.3894231,8.05288462 C20.0080209,5.12017764 22.3557538,2.43590962 25.4326923,0 L29.1346154,2.25961538 C29.4551298,2.45192404 29.6794865,2.68429351 29.8076923,2.95673077 C29.9358981,3.22916803 30,3.49358846 30,3.75 C30,4.03846298 29.9358981,4.31089615 29.8076923,4.56730769 C29.6794865,4.82371923 29.5352572,5.04807596 29.375,5.24038462 C28.9583312,5.72115625 28.5176305,6.28204808 28.0528846,6.92307692 C27.5881387,7.56410577 27.1634635,8.26121418 26.7788462,9.01442308 C26.3942288,9.76763197 26.0737192,10.5929442 25.8173077,11.4903846 C25.5608962,12.387825 25.4326923,13.3493538 25.4326923,14.375 C25.4326923,15.464749 25.6089726,16.6265964 25.9615385,17.8605769 C26.3141043,19.0945575 26.9070471,20.3846087 27.7403846,21.7307692 C28.0288476,22.1794894 28.1730769,22.6282029 28.1730769,23.0769231 C28.1730769,24.1025692 27.5961596,24.8237159 26.4423077,25.2403846 L19.2307692,28.0288462 Z" id="“"></path>
            </g>
        </g>
    </g>
</svg>