<?xml version="1.0" encoding="UTF-8" standalone="no"?>
<svg width="30px" height="29px" viewBox="0 0 30 29" version="1.1" xmlns="http://www.w3.org/2000/svg" xmlns:xlink="http://www.w3.org/1999/xlink">
    <!-- Generator: Sketch 49.3 (51167) - http://www.bohemiancoding.com/sketch -->
    <title>”</title>
    <desc>Created with Sketch.</desc>
    <defs></defs>
    <g id="Page-1" stroke="none" stroke-width="1" fill="none" fill-rule="evenodd">
        <g id="Artboard" transform="translate(-1180.000000, -1341.000000)" fill="#FFFFFF">
            <g id="testimonial" transform="translate(224.000000, 1320.000000)">
                <path d="M966.738363,21 C967.861964,22.7977618 968.688601,24.5954966 969.218299,26.3932584 C969.747996,28.1910202 970.012841,29.9887551 970.012841,31.7865169 C970.012841,34.9968058 969.202255,38.0625857 967.581059,40.9839486 C965.959863,43.9053116 963.624413,46.6019138 960.574639,49.0738363 L956.866774,46.8105939 C956.545745,46.6179766 956.321028,46.3852341 956.192616,46.1123596 C956.064205,45.839485 956,45.5746401 956,45.317817 C956,44.7078621 956.208666,44.1942236 956.626003,43.776886 C957.043341,43.2953427 957.484749,42.7496018 957.950241,42.1396469 C958.415733,41.529692 958.84109,40.8394902 959.226324,40.0690209 C959.611559,39.2985515 959.924557,38.4638889 960.165329,37.565008 C960.406101,36.6661271 960.526485,35.7030549 960.526485,34.6757624 C960.526485,33.5842642 960.349922,32.4205519 959.99679,31.1845907 C959.643658,29.9486295 959.049763,28.6404563 958.215088,27.2600321 C957.926162,26.8426945 957.781701,26.409312 957.781701,25.9598716 C957.781701,24.9325791 958.375596,24.210275 959.563403,23.7929374 L966.738363,21 Z M982.725522,21 C983.849123,22.7977618 984.67576,24.5954966 985.205457,26.3932584 C985.735155,28.1910202 986,29.9887551 986,31.7865169 C986,34.9968058 985.189414,38.0625857 983.568218,40.9839486 C981.947022,43.9053116 979.611572,46.6019138 976.561798,49.0738363 L972.853933,46.8105939 C972.532904,46.6179766 972.308187,46.3852341 972.179775,46.1123596 C972.051364,45.839485 971.987159,45.5746401 971.987159,45.317817 C971.987159,44.7078621 972.195825,44.1942236 972.613162,43.776886 C973.0305,43.2953427 973.471908,42.7496018 973.9374,42.1396469 C974.402892,41.529692 974.828248,40.8394902 975.213483,40.0690209 C975.598718,39.2985515 975.911716,38.4638889 976.152488,37.565008 C976.39326,36.6661271 976.513644,35.7030549 976.513644,34.6757624 C976.513644,33.5842642 976.33708,32.4205519 975.983949,31.1845907 C975.630817,29.9486295 975.036922,28.6404563 974.202247,27.2600321 C973.913321,26.8426945 973.76886,26.409312 973.76886,25.9598716 C973.76886,24.9325791 974.362755,24.210275 975.550562,23.7929374 L982.725522,21 Z" id="”"></path>
            </g>
        </g>
    </g>
</svg>